<svg width="14" height="16" viewBox="0 0 14 16" fill="none" xmlns="http://www.w3.org/2000/svg">
<path d="M12.281 2.70312H3.13242C2.94086 2.70312 2.75715 2.77922 2.6217 2.91467C2.48625 3.05012 2.41016 3.23383 2.41016 3.42539V14.9816C2.41016 15.1731 2.48625 15.3568 2.6217 15.4923C2.75715 15.6277 2.94086 15.7038 3.13242 15.7038H12.281C12.4726 15.7038 12.6563 15.6277 12.7918 15.4923C12.9272 15.3568 13.0033 15.1731 13.0033 14.9816V3.42539C13.0033 3.23383 12.9272 3.05012 12.7918 2.91467C12.6563 2.77922 12.4726 2.70312 12.281 2.70312ZM12.0403 14.7408H3.37317V3.66614H12.0403V14.7408Z" fill="#2253FF"/>
<path d="M10.5932 1.01816C10.5932 0.826603 10.5171 0.642894 10.3816 0.507444C10.2462 0.371994 10.0624 0.295898 9.87089 0.295898H0.72226C0.530705 0.295898 0.346995 0.371994 0.211545 0.507444C0.076095 0.642894 0 0.826603 0 1.01816V12.5743C0 12.7659 0.076095 12.9496 0.211545 13.085C0.346995 13.2205 0.530705 13.2966 0.72226 13.2966H0.963014V1.25891H10.5932V1.01816Z" fill="#2253FF"/>
</svg>
