<svg width="18" height="18" viewBox="0 0 18 18" fill="none" xmlns="http://www.w3.org/2000/svg">
<path d="M0.302199 5.981H4.02143V17.9313H0.302199V5.981ZM2.16181 0.0465858C2.73207 0.0465858 3.27898 0.273406 3.68222 0.677111C4.08546 1.08082 4.312 1.62835 4.312 2.19927C4.29984 2.76209 4.06794 3.29773 3.66601 3.69142C3.26409 4.08512 2.72411 4.30553 2.16181 4.3054C1.87847 4.30694 1.59762 4.25239 1.33541 4.14489C1.07319 4.0374 0.83477 3.87908 0.633874 3.67903C0.432978 3.47898 0.273556 3.24116 0.164773 2.97922C0.0559902 2.71729 -4.13927e-06 2.43639 2.29517e-10 2.15272C-4.13927e-06 1.86904 0.0559902 1.58818 0.164773 1.32624C0.273556 1.06431 0.432978 0.826485 0.633874 0.626438C0.83477 0.42639 1.07319 0.268035 1.33541 0.160539C1.59762 0.0530437 1.87847 -0.00150193 2.16181 3.14537e-05V0.0465858ZM6.34596 17.8847H10.0652V11.9736C10.0652 10.4143 10.3558 8.91329 12.2851 8.91329C14.2145 8.91329 14.2145 10.6936 14.2145 12.0783V17.8964H17.9221V11.3452C17.9221 8.12203 17.2364 5.65519 13.4822 5.65519C12.7814 5.63411 12.0878 5.80234 11.4742 6.14222C10.8607 6.4821 10.3499 6.98109 9.99546 7.58679V5.9461H6.43894L6.34596 17.8847Z" fill="black"/>
</svg>
