<svg width="29" height="18" viewBox="0 0 29 18" fill="none" xmlns="http://www.w3.org/2000/svg">
<path d="M18.4142 1.92578H10.5664V16.0752H18.4142V1.92578Z" fill="#FF5A00"/>
<path d="M11.0868 8.99994C11.0868 6.1252 12.4334 3.57376 14.4998 1.92523C12.979 0.725238 11.0606 0 8.96808 0C4.01097 0 0 4.02522 0 8.99994C0 13.9747 4.01097 17.9999 8.96808 17.9999C11.0606 17.9999 12.979 17.2746 14.4998 16.0747C12.4305 14.4494 11.0868 11.8747 11.0868 8.99994Z" fill="#EB001B"/>
<path d="M28.9998 8.99994C28.9998 13.9747 24.9889 17.9999 20.0318 17.9999C17.9392 17.9999 16.0208 17.2746 14.5 16.0747C16.5926 14.4232 17.9131 11.8747 17.9131 8.99994C17.9131 6.1252 16.5664 3.57376 14.5 1.92523C16.0179 0.725238 17.9363 0 20.0289 0C24.9889 0 28.9998 4.05143 28.9998 8.99994Z" fill="#F79E1B"/>
</svg>
