<svg width="16" height="20" viewBox="0 0 16 20" fill="none" xmlns="http://www.w3.org/2000/svg">
<path fill-rule="evenodd" clip-rule="evenodd" d="M6.80591 13.0004C6.80264 13.0459 6.80264 13.0917 6.80591 13.1373C6.10482 15.8336 6.0293 16.4235 5.30664 17.6768C4.96111 18.269 4.57179 18.8358 4.14177 19.3726C4.08784 19.4358 4.0447 19.5095 3.94763 19.4885C3.85055 19.4674 3.83975 19.3726 3.82896 19.2883C3.70515 18.4761 3.65104 17.6553 3.66718 16.8342C3.66718 15.781 3.83977 15.3913 5.26352 9.5562C5.28987 9.4775 5.28987 9.39264 5.26352 9.31394C4.91007 8.4469 4.87199 7.48769 5.15565 6.59654C5.79203 4.60587 8.10022 4.49 8.51009 6.09096C8.75816 7.14422 8.10024 8.43973 7.5933 10.3988C7.17265 12.0208 9.12491 13.1689 10.8291 11.9892C12.5333 10.8096 12.9863 8.28176 12.8461 6.43855C12.6196 2.7416 8.53166 1.94111 5.84594 3.13129C2.83665 4.50054 2.14637 8.14482 3.51619 9.80897C3.68877 10.0196 3.81818 10.1566 3.76425 10.3672L3.5054 11.3678C3.49408 11.4233 3.46948 11.4753 3.43361 11.5197C3.39773 11.5641 3.35159 11.5996 3.29898 11.6232C3.24637 11.6468 3.1888 11.658 3.13094 11.6557C3.07308 11.6534 3.01658 11.6378 2.9661 11.6101C2.46972 11.4141 2.0346 11.0945 1.70412 10.6832C1.04149 9.7231 0.6875 8.59165 0.6875 7.43386C0.6875 6.27607 1.04149 5.14466 1.70412 4.18456C2.54504 2.98391 3.71241 2.03626 5.07488 1.44825C6.43734 0.860249 7.94084 0.655221 9.41614 0.856244C10.8781 0.949878 12.2656 1.51966 13.3568 2.47442C14.4479 3.42918 15.1796 4.71373 15.4347 6.12256C15.6891 8.3054 15.1006 10.5024 13.7845 12.2841C11.8214 14.6645 8.65032 14.812 7.18343 13.3374C6.96771 13.2637 6.87063 13.1267 6.80591 13.0004Z" fill="black"/>
</svg>
