<svg width="27" height="16" viewBox="0 0 27 16" fill="none" xmlns="http://www.w3.org/2000/svg">
<path d="M13.5413 11.3341C13.5583 11.9075 13.4188 12.4756 13.1357 12.9859C12.8563 13.4618 12.4593 13.8697 11.9769 14.1764C11.4756 14.5019 10.9197 14.7483 10.3315 14.9057C9.68234 15.0716 9.01177 15.1546 8.33836 15.1524H0.597656V0.340258H9.17269C9.69705 0.332031 10.2152 0.44639 10.6791 0.672752C11.1259 0.880733 11.5206 1.17302 11.8379 1.53079C12.1601 1.8913 12.4112 2.30159 12.5795 2.7428C12.7437 3.18476 12.8298 3.64835 12.8344 4.11569C12.8365 4.82813 12.6324 5.5281 12.2435 6.14286C11.8617 6.7811 11.257 7.28032 10.5284 7.55866C11.3943 7.77131 12.1601 8.24261 12.707 8.89938C13.2713 9.60179 13.5651 10.459 13.5413 11.3341ZM3.76115 2.75354V6.57189H7.90962C8.15787 6.57658 8.40463 6.53537 8.63545 6.45064C8.86627 6.36592 9.07647 6.23941 9.25378 6.07851C9.44064 5.89378 9.58521 5.67598 9.67881 5.4382C9.7724 5.20043 9.81308 4.94759 9.79841 4.69489C9.81433 4.4496 9.77747 4.20383 9.68995 3.97183C9.60242 3.73984 9.46597 3.52623 9.28854 3.34344C9.13234 3.1828 8.941 3.05479 8.72722 2.96787C8.51344 2.88095 8.28215 2.83712 8.04867 2.83933L3.76115 2.75354ZM10.4126 10.7442C10.4143 10.4839 10.3632 10.2255 10.2619 9.98265C10.1707 9.75241 10.0374 9.53838 9.86793 9.34984C9.70778 9.17236 9.51075 9.02648 9.28854 8.92081C9.05399 8.8159 8.79575 8.7644 8.53533 8.77064H3.76115V12.6641H8.39629C8.67011 12.6666 8.9418 12.6192 9.19585 12.5246C9.43627 12.4307 9.65321 12.292 9.83317 12.1171C10.0217 11.9399 10.1678 11.7279 10.2619 11.495C10.3592 11.2697 10.4103 11.0297 10.4126 10.7871V10.7442ZM20.2854 15.1095C19.4323 15.1226 18.585 14.9767 17.794 14.6805C17.0875 14.413 16.447 14.0155 15.9112 13.5122C15.3754 13.0089 14.9555 12.4102 14.6769 11.7524C14.3973 11.0894 14.2557 10.3834 14.2597 9.67163C14.2494 8.93944 14.3869 8.21191 14.6653 7.52649C14.9399 6.86271 15.358 6.25778 15.894 5.74877C16.43 5.23975 17.0726 4.83735 17.7824 4.56618C18.582 4.2566 19.442 4.10322 20.3086 4.11569C21.1677 4.10339 22.0201 4.25682 22.8116 4.56618C23.9374 5.03464 24.8773 5.81645 25.5005 6.80271C26.1236 7.78897 26.3989 8.93057 26.2879 10.0685C26.2974 10.2006 26.2974 10.3332 26.2879 10.4653H17.4348C17.4734 10.8391 17.5874 11.203 17.7708 11.5379C17.9344 11.8512 18.1627 12.1318 18.4429 12.3638C18.7152 12.5947 19.0342 12.7733 19.3816 12.8893C19.7288 13.0138 20.0985 13.0757 20.4708 13.0717C21.0493 13.0726 21.6188 12.9399 22.1279 12.6855C22.6032 12.4522 22.9761 12.073 23.1824 11.613L25.6969 12.2672C25.2463 13.0952 24.5459 13.7844 23.6807 14.2515C22.6664 14.8485 21.4873 15.1613 20.2854 15.1524V15.1095ZM23.2519 8.67411C23.2176 7.94709 22.8764 7.26157 22.3017 6.76494C21.7478 6.29045 21.0168 6.03292 20.2622 6.04634C19.8657 6.03566 19.4711 6.1014 19.1035 6.23939C18.7678 6.36284 18.4609 6.54491 18.1996 6.77568C17.9266 7.00867 17.706 7.28934 17.5507 7.60154C17.3775 7.93749 17.2789 8.30223 17.261 8.67411H23.2519ZM16.4383 2.71063H24.0978V0.951631H16.4383V2.71063Z" fill="black"/>
</svg>
