<svg width="74" height="74" viewBox="0 0 74 74" fill="none" xmlns="http://www.w3.org/2000/svg">
<path fill-rule="evenodd" clip-rule="evenodd" d="M37 73C56.8823 73 73 56.8823 73 37C73 17.1177 56.8823 1 37 1C17.1177 1 1 17.1177 1 37C1 56.8823 17.1177 73 37 73ZM37 74C57.4345 74 74 57.4345 74 37C74 16.5655 57.4345 0 37 0C16.5655 0 0 16.5655 0 37C0 57.4345 16.5655 74 37 74Z" fill="white"/>
<path fill-rule="evenodd" clip-rule="evenodd" d="M36.5 52L36.5 22L37.5 22L37.5 52L36.5 52Z" fill="white"/>
<path fill-rule="evenodd" clip-rule="evenodd" d="M29.6465 45.3536L30.3536 44.6465L37 51.2929L43.6465 44.6465L44.3536 45.3536L37 52.7071L29.6465 45.3536Z" fill="white"/>
</svg>
