<svg width="11" height="18" viewBox="0 0 11 18" fill="none" xmlns="http://www.w3.org/2000/svg">
<path d="M10.3355 10.4572L10.8601 7.28055H7.57285V5.20978C7.55139 4.9722 7.58755 4.73315 7.67861 4.51028C7.76967 4.2874 7.91334 4.08638 8.09902 3.922C8.28471 3.75763 8.50765 3.63409 8.75149 3.5605C8.99532 3.48691 9.25382 3.46513 9.5079 3.49678H11V0.78636C10.1249 0.65356 9.24045 0.581105 8.35388 0.569546C7.74318 0.526847 7.12985 0.609329 6.55717 0.811175C5.98449 1.01302 5.46643 1.32931 5.03954 1.73772C4.61266 2.14613 4.28735 2.63667 4.08659 3.17479C3.88582 3.7129 3.81449 4.28544 3.87762 4.85199V7.28055H0.870117V10.4572H3.87762V17.7102H7.57285V10.4572H10.3355Z" fill="black"/>
</svg>
