<svg width="12" height="18" viewBox="0 0 12 18" fill="none" xmlns="http://www.w3.org/2000/svg">
<path d="M10.3873 10.6783L10.9119 7.50174H7.6246V5.43097C7.60315 5.19339 7.6393 4.95434 7.73037 4.73147C7.82143 4.50859 7.96509 4.30757 8.15078 4.14319C8.33647 3.97882 8.55941 3.85529 8.80325 3.7817C9.04708 3.7081 9.30558 3.68632 9.55966 3.71797H11.0517V1.00755C10.1766 0.874752 9.29221 0.802296 8.40563 0.790738C7.79494 0.748038 7.1816 0.830521 6.60893 1.03237C6.03625 1.23421 5.51819 1.5505 5.0913 1.95891C4.66441 2.36732 4.33911 2.85786 4.13834 3.39598C3.93758 3.93409 3.86624 4.50663 3.92938 5.07318V7.50174H0.921875V10.6783H3.92938V17.9314H7.6246V10.6783H10.3873Z" fill="black"/>
</svg>
