<svg width="18" height="19" viewBox="0 0 18 19" fill="none" xmlns="http://www.w3.org/2000/svg">
<path d="M14.754 4.64607C14.754 4.92529 14.6432 5.19305 14.4458 5.39048C14.2485 5.58792 13.9809 5.69885 13.7018 5.69885C13.5636 5.69885 13.4268 5.6716 13.2991 5.6187C13.1715 5.56579 13.0555 5.48824 12.9577 5.39048C12.86 5.29272 12.7825 5.17668 12.7296 5.04895C12.6768 4.92122 12.6496 4.78432 12.6496 4.64607C12.6496 4.50782 12.6768 4.37092 12.7296 4.24319C12.7825 4.11546 12.86 3.99939 12.9577 3.90163C13.0555 3.80387 13.1715 3.72632 13.2991 3.67341C13.4268 3.6205 13.5636 3.59326 13.7018 3.59326C13.9809 3.59326 14.2485 3.70419 14.4458 3.90163C14.6432 4.09906 14.754 4.36686 14.754 4.64607ZM13.4416 9.3553C13.4386 10.5253 12.9727 11.6465 12.1458 12.4738C11.319 13.3011 10.1983 13.7672 9.02892 13.7702C7.85954 13.7672 6.73891 13.3011 5.91203 12.4738C5.08515 11.6465 4.61928 10.5253 4.6163 9.3553C4.61928 8.18531 5.08515 7.06408 5.91203 6.23677C6.73891 5.40946 7.85954 4.94336 9.02892 4.94037C10.1983 4.94336 11.319 5.40946 12.1458 6.23677C12.9727 7.06408 13.4386 8.18531 13.4416 9.3553ZM11.8575 9.3553C11.8575 8.60472 11.5595 7.88485 11.0291 7.35411C10.4986 6.82337 9.77912 6.52524 9.02892 6.52524C8.28069 6.52823 7.56412 6.82771 7.0361 7.35812C6.50808 7.88854 6.21163 8.60668 6.21164 9.3553C6.21163 10.1039 6.50808 10.822 7.0361 11.3524C7.56412 11.8829 8.28069 12.1824 9.02892 12.1854C9.77912 12.1854 10.4986 11.8872 11.0291 11.3564C11.5595 10.8257 11.8575 10.1059 11.8575 9.3553ZM17.9221 12.9325V5.7781C17.9191 4.34991 17.3507 2.98107 16.3414 1.97119C15.332 0.961314 13.9639 0.392639 12.5364 0.389648H5.38569C3.95732 0.389648 2.58745 0.95735 1.57744 1.96788C0.567428 2.9784 0 4.34899 0 5.7781V12.9325C0 14.3616 0.567428 15.7322 1.57744 16.7427C2.58745 17.7532 3.95732 18.3209 5.38569 18.3209H12.5364C13.2437 18.3209 13.944 18.1815 14.5974 17.9107C15.2508 17.6399 15.8446 17.243 16.3447 16.7427C16.8448 16.2423 17.2415 15.6483 17.5121 14.9946C17.7828 14.3408 17.9221 13.6401 17.9221 12.9325ZM12.5364 2.07635C13.5167 2.07934 14.4561 2.47032 15.1493 3.16388C15.8425 3.85744 16.2333 4.79726 16.2362 5.7781V12.9325C16.2362 13.9142 15.8464 14.8558 15.1526 15.55C14.4587 16.2442 13.5177 16.6342 12.5364 16.6342H5.38569C4.40443 16.6342 3.46337 16.2442 2.76952 15.55C2.07566 14.8558 1.68586 13.9142 1.68586 12.9325V5.7781C1.68884 4.79726 2.07961 3.85744 2.77281 3.16388C3.46602 2.47032 4.40535 2.07934 5.38569 2.07635H12.5364Z" fill="black"/>
</svg>
