<svg width="19" height="19" viewBox="0 0 19 19" fill="none" xmlns="http://www.w3.org/2000/svg">
<path d="M15.0529 5.03767C15.0529 5.31689 14.942 5.58465 14.7447 5.78208C14.5473 5.97952 14.2797 6.09045 14.0006 6.09045C13.8624 6.09045 13.7256 6.06321 13.5979 6.0103C13.4703 5.95739 13.3543 5.87984 13.2566 5.78208C13.1589 5.68432 13.0814 5.56829 13.0285 5.44056C12.9756 5.31283 12.9484 5.17593 12.9484 5.03767C12.9484 4.89942 12.9756 4.76252 13.0285 4.63479C13.0814 4.50706 13.1589 4.39099 13.2566 4.29323C13.3543 4.19547 13.4703 4.11792 13.5979 4.06501C13.7256 4.0121 13.8624 3.98486 14.0006 3.98486C14.2797 3.98486 14.5473 4.09579 14.7447 4.29323C14.942 4.49066 15.0529 4.75846 15.0529 5.03767ZM13.7404 9.7469C13.7374 10.9169 13.2715 12.0381 12.4447 12.8654C11.6178 13.6927 10.4971 14.1588 9.32775 14.1618C8.15837 14.1588 7.03774 13.6927 6.21086 12.8654C5.38397 12.0381 4.91811 10.9169 4.91512 9.7469C4.91811 8.57691 5.38397 7.45568 6.21086 6.62837C7.03774 5.80107 8.15837 5.33496 9.32775 5.33198C10.4971 5.33496 11.6178 5.80107 12.4447 6.62837C13.2715 7.45568 13.7374 8.57691 13.7404 9.7469ZM12.1564 9.7469C12.1564 8.99632 11.8584 8.27645 11.3279 7.74572C10.7974 7.21498 10.0779 6.91684 9.32775 6.91684C8.57952 6.91983 7.86295 7.21931 7.33493 7.74972C6.80691 8.28014 6.51046 8.99828 6.51047 9.7469C6.51046 10.4955 6.80691 11.2136 7.33493 11.744C7.86295 12.2745 8.57952 12.574 9.32775 12.577C10.0779 12.577 10.7974 12.2788 11.3279 11.748C11.8584 11.2173 12.1564 10.4975 12.1564 9.7469ZM18.2209 13.3241V6.1697C18.2179 4.74151 17.6496 3.37268 16.6402 2.3628C15.6308 1.35292 14.2627 0.784241 12.8352 0.78125H5.68452C4.25615 0.78125 2.88628 1.34895 1.87627 2.35948C0.866256 3.37001 0.298828 4.7406 0.298828 6.1697V13.3241C0.298828 14.7532 0.866256 16.1238 1.87627 17.1343C2.88628 18.1448 4.25615 18.7125 5.68452 18.7125H12.8352C13.5425 18.7125 14.2428 18.5731 14.8963 18.3023C15.5497 18.0315 16.1434 17.6346 16.6435 17.1343C17.1436 16.6339 17.5403 16.0399 17.811 15.3862C18.0816 14.7324 18.2209 14.0317 18.2209 13.3241ZM12.8352 2.46796C13.8156 2.47094 14.7549 2.86192 15.4481 3.55548C16.1413 4.24904 16.5321 5.18886 16.5351 6.1697V13.3241C16.5351 14.3058 16.1453 15.2474 15.4514 15.9416C14.7576 16.6358 13.8165 17.0258 12.8352 17.0258H5.68452C4.70326 17.0258 3.76219 16.6358 3.06834 15.9416C2.37449 15.2474 1.98469 14.3058 1.98469 13.3241V6.1697C1.98767 5.18886 2.37844 4.24904 3.07164 3.55548C3.76485 2.86192 4.70418 2.47094 5.68452 2.46796H12.8352Z" fill="black"/>
</svg>
