<svg width="72" height="72" viewBox="0 0 72 72" fill="none" xmlns="http://www.w3.org/2000/svg">
<path d="M72 68.4894L60.3583 56.8502C63.4695 52.8459 64.9375 47.8063 64.4632 42.7576C63.989 37.7089 61.6083 33.0308 57.8059 29.6758C54.0035 26.3209 49.0653 24.5413 43.9969 24.6996C38.9285 24.8579 34.1109 26.9421 30.5252 30.5277C26.9396 34.1134 24.8554 38.9309 24.6971 43.9994C24.5389 49.0678 26.3184 54.006 29.6733 57.8084C33.0283 61.6108 37.7064 63.9915 42.7551 64.4657C47.8038 64.9399 52.8434 63.472 56.8477 60.3608L68.4894 72L72 68.4894ZM44.6897 59.5862C41.7434 59.5862 38.8633 58.7125 36.4136 57.0757C33.9638 55.4388 32.0545 53.1123 30.927 50.3903C29.7996 47.6683 29.5045 44.6731 30.0793 41.7835C30.6541 38.8938 32.0729 36.2395 34.1562 34.1562C36.2395 32.0729 38.8938 30.6541 41.7835 30.0793C44.6731 29.5045 47.6683 29.7996 50.3903 30.927C53.1123 32.0545 55.4388 33.9638 57.0757 36.4136C58.7125 38.8633 59.5862 41.7434 59.5862 44.6897C59.5816 48.6391 58.0107 52.4254 55.218 55.218C52.4254 58.0107 48.6391 59.5816 44.6897 59.5862ZM14.8966 59.5862H4.96552C3.64898 59.5849 2.38675 59.0613 1.45582 58.1304C0.524888 57.1995 0.00131456 55.9372 0 54.6207V44.6897H4.96552V54.6207H14.8966V59.5862ZM0 24.8276H4.96552V34.7586H0V24.8276ZM59.5862 14.8966H54.6207V4.96552H44.6897V0H54.6207C55.9372 0.00131456 57.1995 0.524888 58.1304 1.45582C59.0613 2.38675 59.5849 3.64898 59.5862 4.96552V14.8966ZM24.8276 0H34.7586V4.96552H24.8276V0ZM4.96552 14.8966H0V4.96552C0.00131456 3.64898 0.524888 2.38675 1.45582 1.45582C2.38675 0.524888 3.64898 0.00131456 4.96552 0H14.8966V4.96552H4.96552V14.8966Z" fill="white"/>
</svg>
