<svg width="33" height="32" viewBox="0 0 33 32" fill="none" xmlns="http://www.w3.org/2000/svg">
<path d="M0.00228409 15.5179C0.00228409 6.59767 6.98629 0 16.0023 0C25.0183 0 32.0023 6.59767 32.0023 15.5179C32.0023 24.4331 25.0183 31.0358 16.0023 31.0358C14.3873 31.0358 12.8303 30.8218 11.3773 30.4209C11.0934 30.3436 10.7914 30.3677 10.5233 30.4889L7.33528 31.8896C7.14293 31.975 6.93249 32.0118 6.72255 31.9967C6.51261 31.9815 6.30962 31.915 6.13152 31.8028C5.95342 31.6906 5.80568 31.5364 5.70134 31.3536C5.59701 31.1708 5.53929 30.9652 5.53328 30.7548L5.43928 27.9014C5.43325 27.7298 5.39278 27.5612 5.32029 27.4056C5.24779 27.25 5.14475 27.1106 5.01728 26.9956C3.41315 25.5491 2.136 23.7772 1.27104 21.7982C0.406079 19.8192 -0.0268001 17.6784 0.00128409 15.5189L0.00228409 15.5179ZM11.0963 12.5965L6.40328 20.064C5.93428 20.7668 6.83028 21.5847 7.49728 21.0638L12.5493 17.2365C12.7151 17.1072 12.9195 17.037 13.1298 17.037C13.3401 17.037 13.5444 17.1072 13.7103 17.2365L17.4393 20.038C17.7051 20.2352 18.0086 20.3755 18.3311 20.4502C18.6535 20.525 18.9878 20.5325 19.3133 20.4724C19.6388 20.4123 19.9483 20.2858 20.2228 20.1008C20.4972 19.9158 20.7305 19.6762 20.9083 19.3971L25.6013 11.9296C26.0703 11.2267 25.1743 10.4249 24.5073 10.9298L19.4553 14.757C19.2922 14.8861 19.0903 14.9564 18.8823 14.9564C18.6743 14.9564 18.4724 14.8861 18.3093 14.757L14.5753 11.9556C14.3099 11.755 14.0056 11.6118 13.6818 11.5351C13.3581 11.4585 13.0219 11.45 12.6947 11.5103C12.3675 11.5706 12.0564 11.6983 11.7812 11.8853C11.506 12.0723 11.2728 12.3145 11.0963 12.5965Z" fill="#1B3128"/>
</svg>
