<svg width="50" height="16" viewBox="0 0 50 16" fill="none" xmlns="http://www.w3.org/2000/svg">
<path d="M18.9836 0.282549L12.4377 15.758H8.16697L4.9457 3.40891C4.75014 2.64822 4.58113 2.36954 3.98557 2.04932C3.0145 1.52705 1.4109 1.03756 0 0.733336L0.0971324 0.282549H6.97195C7.84797 0.282549 8.63571 0.860548 8.83467 1.86069L10.5359 10.8145L14.7405 0.281516L18.9836 0.282549ZM35.717 10.7054C35.7342 6.62093 30.0172 6.39618 30.0565 4.57135C30.0687 4.01606 30.6034 3.42594 31.7703 3.27498C32.3492 3.1999 33.9442 3.14236 35.7545 3.96755L36.4642 0.685857C35.492 0.336477 34.2413 0 32.6851 0C28.6917 0 25.8814 2.1035 25.8577 5.11555C25.8316 7.34343 27.8628 8.58664 29.3943 9.32669C30.969 10.0851 31.4971 10.572 31.4914 11.2503C31.4799 12.2884 30.2354 12.7469 29.0722 12.7648C27.041 12.7957 25.8631 12.2203 24.9236 11.7873L24.1913 15.1776C25.1353 15.607 26.8777 15.9814 28.6844 16C32.9291 16 35.7053 13.9226 35.7183 10.7054M46.2634 15.758H50L46.7365 0.282549H43.2882C42.9199 0.279404 42.5591 0.385956 42.2527 0.588396C41.9462 0.790836 41.7082 1.07983 41.5695 1.4179L35.5066 15.758H39.749L40.5909 13.4465H45.7743L46.2634 15.758ZM41.7554 10.2747L43.8819 4.46401L45.1059 10.2747H41.7554ZM24.7561 0.282549L21.4153 15.758H17.3753L20.7174 0.282549H24.7561Z" fill="#1434CB"/>
</svg>
